<svg width="231" height="484" viewBox="0 0 231 484" fill="none" xmlns="http://www.w3.org/2000/svg">
<g clip-path="url(#clip0_514_310)">
<path d="M139.458 10.2542C139.39 7.73433 123.005 12.2596 121 10.2542C120.795 10.0491 119.428 5.67398 116.898 8.20336C116.415 8.68675 117.382 9.77082 116.898 10.2542C115.873 11.2796 113.822 11.2796 112.797 12.3051C111.771 13.3305 111.771 15.3813 110.746 16.4067C109.72 17.4322 107.67 17.4322 106.644 18.4576C105.677 19.4244 107.611 21.5925 106.644 22.5593C105.619 23.5847 103.568 23.5847 102.542 24.6101C100.645 26.5074 104.44 49.3739 102.542 51.2712C102.059 51.7545 100.975 50.7878 100.492 51.2712C99.3716 52.3911 102.286 67.4217 102.542 67.6779C103.026 68.1613 104.11 67.1945 104.593 67.6779C105.077 68.1613 104.11 69.2454 104.593 69.7288C104.704 69.8399 110.635 73.7193 110.746 73.8305C110.857 73.9416 114.736 79.8719 114.847 79.983C116.268 81.404 123.681 80.6129 125.102 82.0339C125.585 82.5173 124.618 83.6013 125.102 84.0847C125.517 84.5004 134.94 84.5004 135.356 84.0847C135.839 83.6013 134.873 82.5173 135.356 82.0339C136.04 81.3503 140.825 80.6666 141.508 79.983C142.475 79.0162 140.897 77.1042 141.508 75.8813C141.941 75.0166 143.127 74.6952 143.559 73.8305C144.178 72.5922 142.611 68.626 143.559 67.6779C144.043 67.1945 145.127 68.1613 145.61 67.6779C146.577 66.7112 144.643 64.543 145.61 63.5762C146.094 63.0929 147.178 64.0596 147.661 63.5762C148.345 62.8926 149.028 58.1073 149.712 57.4237C150.195 56.9403 151.279 57.9071 151.763 57.4237C152.73 56.4569 150.796 54.2888 151.763 53.322C152.246 52.8386 153.33 53.8054 153.814 53.322C154.034 53.102 153.814 32.9423 153.814 30.7627C153.814 29.3954 154.78 27.6278 153.814 26.661C153.33 26.1776 152.246 27.1444 151.763 26.661C150.263 25.161 153.263 24.0593 151.763 22.5593C151.279 22.0759 150.195 23.0427 149.712 22.5593C149.228 22.0759 150.15 21.0336 149.712 20.5084C146.617 16.7949 142.876 13.6723 139.458 10.2542Z" fill="#FF00FF"/>
<path d="M109.946 79.1277C111.913 80.4445 108.352 86.6961 109.946 88.2898C110.361 88.7054 113.458 88.2898 114.11 88.2898C121.391 88.2898 127.656 89.1227 134.933 89.1227C135.586 89.1227 138.682 88.7071 139.098 89.1227C139.294 89.3191 138.82 89.9557 139.098 89.9557C139.653 89.9557 138.85 88.7865 139.098 88.2898C139.274 87.9386 139.755 87.8081 139.931 87.4569C140.377 86.5639 139.484 86.6841 139.931 85.7911C140.241 85.1718 141.69 82.5529 140.764 81.6264C140.348 81.2108 137.251 81.6264 136.599 81.6264" fill="#FF00FF"/>
<path d="M140.764 69.9654C147.282 70.935 141.372 66.858 142.43 65.8007C142.626 65.6044 143.066 65.9971 143.263 65.8007C143.459 65.6044 143.066 65.1641 143.263 64.9678C143.459 64.7715 143.899 65.1641 144.096 64.9678C144.292 64.7715 143.899 64.3312 144.096 64.1349C144.292 63.9386 144.732 64.3312 144.928 64.1349C145.125 63.9386 144.804 63.5503 144.928 63.302C145.417 62.3241 146.857 61.9212 147.427 61.6361C148.603 61.0482 148.663 59.9965 149.093 59.1374C150.826 55.671 149.036 60.0278 150.759 58.3045C151.152 57.9118 150.511 57.1353 150.759 56.6386C151.265 55.6259 151.946 54.2646 152.425 53.3069C152.776 52.6045 153.739 52.3435 154.091 51.6411C154.343 51.1363 154.574 49.4913 154.923 49.1423C155.12 48.946 155.56 49.3386 155.756 49.1423C156.081 48.8178 155.756 46.3189 155.756 45.8106C155.756 45.2553 156.312 44.1448 155.756 44.1448C155.479 44.1448 155.756 44.7001 155.756 44.9777C155.756 46.6435 155.756 48.3094 155.756 49.9752C155.756 52.1964 156.034 49.6976 154.923 50.8082C154.395 51.3365 155.27 53.4464 154.923 54.1398C154.748 54.491 154.266 54.6216 154.091 54.9728C153.842 55.4694 154.483 56.246 154.091 56.6386C153.894 56.8349 153.454 56.4423 153.258 56.6386C152.865 57.0313 153.65 57.9118 153.258 58.3045C153.061 58.5008 152.621 58.1081 152.425 58.3045C151.647 59.0825 151.537 61.691 150.759 62.4691C150.563 62.6654 150.122 62.2727 149.926 62.4691C149.73 62.6654 150.05 63.0537 149.926 63.302C149.575 64.0044 148.611 64.2654 148.26 64.9678C148.136 65.2162 148.456 65.6044 148.26 65.8007C148.064 65.9971 147.624 65.6044 147.427 65.8007C146.293 66.9354 145.081 73.6657 140.764 69.9654C138.898 68.3664 139.098 65.5048 139.098 63.302Z" fill="#FF00FF"/>
<path d="M146.594 19.1572C146.317 18.0466 146.273 16.8494 145.761 15.8255C145.637 15.5772 145.192 15.9133 144.928 15.8255C142.532 15.0269 140.475 12.7659 138.265 11.6609C137.553 11.3047 136.479 11.1842 135.766 10.828C134.668 10.2787 133.094 5.65714 132.435 4.99754C131.366 3.92849 128.238 4.96537 127.437 4.16461C127.241 3.96829 127.633 3.52801 127.437 3.33169C126.826 2.72075 114.856 3.79173 114.11 4.16461C112.839 4.80025 107.966 8.12492 107.447 9.16215C107.01 10.036 108.112 12.6619 107.447 13.3268C107.251 13.5231 106.81 13.1304 106.614 13.3268C106.221 13.7194 107.007 14.6 106.614 14.9926C106.418 15.1889 105.977 14.7963 105.781 14.9926C105.365 15.4091 106.198 17.0749 105.781 17.4914C105.585 17.6877 105.144 17.295 104.948 17.4914C104.532 17.9078 105.365 19.5737 104.948 19.9901C104.752 20.1865 104.312 19.7938 104.115 19.9901C103.73 20.3752 104.367 21.986 104.115 22.4889C103.549 23.621 102.183 24.6885 101.616 25.8206C101.18 26.6944 101.417 29.352 100.784 29.9852C100.587 30.1815 100.147 29.7889 99.9506 29.9852C99.5342 30.4017 100.367 32.0675 99.9506 32.484C99.7543 32.6803 99.314 32.2876 99.1177 32.484C98.3303 33.2714 98.9816 36.7847 98.2848 37.4815C98.0885 37.6778 97.6482 37.2852 97.4519 37.4815C97.0592 37.8741 97.8445 38.7547 97.4519 39.1473C97.2555 39.3437 96.8153 38.951 96.6189 39.1473C96.2263 39.54 96.8673 40.3165 96.6189 40.8132C96.0116 42.0279 95.2865 42.1456 94.9531 42.479C94.8939 42.5382 93.8258 51.0525 94.1202 51.6412C94.5656 52.5319 96.4103 55.5971 96.6189 55.8058C96.8153 56.0021 97.2555 55.6095 97.4519 55.8058C97.9346 56.2885 98.6349 58.6547 99.1177 59.1375C99.314 59.3338 99.7543 58.9411 99.9506 59.1375C100.147 59.3338 99.8265 59.7221 99.9506 59.9704C100.302 60.6728 101.265 60.9338 101.616 61.6362C102.221 62.8459 103.299 66.6506 104.115 67.4667C104.312 67.663 104.752 67.2704 104.948 67.4667C105.642 68.1608 105.087 70.1043 105.781 70.7984C105.851 70.8678 107.213 71.6313 107.447 71.6313" fill="#FF00FF"/>
<path d="M121.607 4.9976C119.941 4.9976 118.252 4.72373 116.609 4.9976C116.335 5.04324 116.805 5.6342 116.609 5.83052C116.564 5.87565 114.155 7.45123 114.11 7.49636C113.914 7.69268 114.307 8.13296 114.11 8.32928C114.062 8.37748 111.676 9.96305 111.612 9.99513C110.496 10.5529 110.457 11.9822 109.946 12.4939C109.434 13.0056 108.005 13.0442 107.447 14.1597C107.201 14.6515 106.057 17.2151 105.781 17.4914C105.585 17.6877 105.144 17.2951 104.948 17.4914C104.556 17.8841 105.196 18.6606 104.948 19.1573C104.546 19.9614 102.813 23.7913 102.449 24.1548C102.253 24.3511 101.813 23.9585 101.616 24.1548C101.224 24.5474 102.009 25.428 101.616 25.8206C101.283 26.154 100.558 26.2717 99.9506 27.4865C99.4168 28.5542 98.6047 38.3145 99.1177 38.3145C99.673 38.3145 98.9421 37.1754 99.1177 36.6486C99.352 35.9458 102.104 30.3303 102.449 29.9853C102.888 29.5463 103.676 29.5913 104.115 29.1523C105.303 27.9645 104.805 26.2888 105.781 24.9877C106.154 24.4911 107.008 24.5938 107.447 24.1548C107.643 23.9585 107.323 23.5702 107.447 23.3219C107.798 22.6195 108.762 22.3584 109.113 21.656C109.359 21.1642 110.502 18.6006 110.779 18.3243C111.399 17.7035 112.525 17.9431 113.277 17.4914C114.403 16.8161 123.072 10.3953 123.272 9.99513C124.208 8.12405 118.338 6.95904 121.607 4.9976C123.34 3.95767 125.476 6.17321 127.437 6.66344C129.006 7.05567 129.625 5.3087 129.936 4.9976C130.141 4.79211 134.728 4.79211 134.933 4.9976C135.699 5.76368 135.885 7.73374 136.599 9.16221C137.099 10.1617 138.598 10.6615 139.098 11.661C139.35 12.1658 139.582 13.8107 139.931 14.1597C140.347 14.5762 141.18 14.5762 141.597 14.9927C141.793 15.189 141.4 15.6293 141.597 15.8256C141.989 16.2182 142.87 15.4329 143.263 15.8256C143.459 16.0219 143.066 16.4622 143.263 16.6585C143.675 17.0712 147.481 18.2704 148.26 17.4914C149.069 16.683 145.475 13.1839 144.095 12.4939C143.847 12.3697 143.459 12.6902 143.263 12.4939C143.066 12.2976 143.459 11.8573 143.263 11.661C142.568 10.9669 139.792 12.3551 139.098 11.661C138.902 11.4646 139.294 11.0244 139.098 10.828C138.892 10.6226 134.306 10.6226 134.1 10.828C133.904 11.0244 134.297 11.4646 134.1 11.661C133.471 12.2906 132.435 12.0223 132.435 13.3268" fill="#00FF00"/>
<path d="M81.6263 97.452C82.0631 101.735 81.3915 105.759 80.7934 109.946C80.6601 110.879 80.2366 135.486 80.7934 136.599C80.969 136.951 81.5022 137.06 81.6263 137.432C82.0289 138.64 82.0177 146.986 82.4593 147.427C82.6556 147.624 83.0959 147.231 83.2922 147.427C84.2319 148.367 83.2922 153.557 83.2922 154.924C83.2922 161.302 82.246 168.637 83.2922 174.914C83.3943 175.526 84.0034 175.971 84.1251 176.58C84.7138 179.523 83.6998 182.765 84.1251 185.742C84.4489 188.008 85.507 190.133 85.791 192.405C86.3217 196.651 86.6237 200.733 87.4568 204.899C88.2239 208.735 86.22 213.682 87.4568 217.393C87.6531 217.982 88.1391 218.456 88.2897 219.059C88.5591 220.136 87.9385 221.337 88.2897 222.39C88.4139 222.763 88.9985 222.851 89.1226 223.223C89.7023 224.962 89.7687 247.752 89.1226 249.044C88.7291 249.831 87.2533 253.838 88.2897 254.874C88.7629 255.347 91.7815 254.79 92.4543 254.874C94.1301 255.084 95.7734 255.521 97.4519 255.707C101.432 256.149 105.143 255.878 109.113 256.54C110.208 256.723 111.391 256.189 112.444 256.54C112.817 256.664 112.905 257.249 113.277 257.373C116.059 258.3 120.45 257.02 123.272 257.373C125.772 257.685 128.288 258.543 130.769 259.039C132.887 259.462 135.34 258.516 137.432 259.039C142.676 260.35 148.697 260.486 153.258 258.206C153.754 257.958 154.531 258.599 154.923 258.206C155.257 257.873 155.375 257.147 156.589 256.54C157.249 256.21 164.049 255.743 164.086 255.707C164.62 255.173 164.086 250.306 164.086 249.877C164.086 246.075 164.635 241.225 164.086 237.383C163.57 233.773 161.486 230.518 159.921 227.388C158.111 223.767 157.303 207.873 158.255 204.066C158.828 201.774 160.179 199.701 160.754 197.403C160.956 196.595 160.165 195.493 160.754 194.904C160.95 194.708 161.391 195.1 161.587 194.904C162.176 194.315 161.323 193.195 161.587 192.405C162.165 190.67 163.586 188.574 164.086 186.575C164.355 185.497 163.816 184.32 164.086 183.243C164.46 181.744 165.328 180.348 165.751 179.078C165.964 178.44 166.778 169.916 166.584 169.916C166.029 169.916 166.584 171.027 166.584 171.582C166.584 173.758 166.78 176.091 166.584 178.245C167.174 181.511 165.304 184.327 164.919 187.408C164.439 191.241 165.865 196.116 164.919 199.901C163.137 207.027 162.252 214.566 159.921 221.557C158.989 224.354 159.921 231.718 159.921 234.884C159.921 236.077 159.162 241.621 159.921 242.38C160.004 242.464 162.336 242.464 162.42 242.38C162.985 241.815 161.968 233.74 162.42 232.385C162.544 232.013 163.077 231.904 163.253 231.552C163.734 230.59 164.086 222.562 164.086 220.724C164.086 215.546 164.723 210.001 164.086 204.899C163.543 200.56 162.296 196.662 161.587 192.405C161.04 189.123 160.905 185.69 159.921 182.41C159.564 181.221 158.691 180.241 158.255 179.078C156.539 174.501 155.28 169.677 154.091 164.919C153.6 162.958 152.757 161.082 152.425 159.088C152.021 156.668 151.622 148.171 152.425 145.761C153.21 143.404 155.742 140.75 155.756 140.764C156.149 141.157 155.622 141.891 155.756 142.43C155.907 143.032 156.281 143.557 156.589 144.096C159.391 148.998 161.455 154.528 163.253 159.921C164.153 162.623 162.783 166.266 163.253 169.083C163.397 169.949 163.913 170.721 164.086 171.582C164.268 172.493 164.529 176.633 164.919 177.412C165.948 179.471 165.751 177.125 165.751 179.078C165.751 180.467 165.751 181.855 165.751 183.243C165.751 183.521 165.474 184.076 165.751 184.076C166.029 184.076 165.751 183.521 165.751 183.243C165.751 182.132 165.751 181.022 165.751 179.911C165.751 178.502 165.31 176.239 165.751 174.914C166.709 172.042 166.584 174.297 166.584 172.415C166.584 167.898 168.014 163.365 169.083 159.088C169.606 156.998 168.561 154.515 169.083 152.425C169.234 151.823 169.72 151.348 169.916 150.759C170.575 148.783 169.414 146.106 169.916 144.096C170.011 143.715 170.573 143.614 170.749 143.263C171.586 141.589 170.749 133.394 170.749 131.602C170.749 129.188 171.71 119.363 170.749 117.442C169.745 115.433 167.977 110.194 168.25 108.28C168.819 104.301 170.749 100.559 170.749 96.6191C170.749 95.2309 170.749 93.8426 170.749 92.4544C170.749 92.1768 171.027 91.6215 170.749 91.6215C170.194 91.6215 171.142 92.8947 170.749 93.2874C170.105 93.9314 167.107 93.5977 166.584 94.1203C166.388 94.3166 166.781 94.7569 166.584 94.9532C166.199 95.3382 164.589 94.7018 164.086 94.9532C163.734 95.1288 163.604 95.6105 163.253 95.7861C162.972 95.9267 151.818 95.8991 151.592 95.7861C151.343 95.662 151.788 95.1495 151.592 94.9532C150.898 94.2591 148.954 94.8144 148.26 94.1203C147.844 93.7038 147.844 92.8709 147.427 92.4544C147.15 92.1768 145.206 91.8992 144.928 91.6215C144.732 91.4252 145.125 90.9849 144.928 90.7886C144.512 90.3721 143.679 90.3721 143.263 89.9557C143.233 89.9264 142.726 87.7535 142.43 87.4569C141.496 86.5231 137.828 88.0711 136.599 87.4569C136.248 87.2813 136.117 86.7996 135.766 86.624C135.164 86.3227 118.364 85.4985 116.609 85.7911C114.877 86.0797 113.315 87.031 111.612 87.4569C111.167 87.568 109.418 87.1515 109.113 87.4569C108.696 87.8734 109.529 89.5392 109.113 89.9557C108.916 90.152 108.476 89.7594 108.28 89.9557C108.084 90.152 108.404 90.5403 108.28 90.7886C107.78 91.7881 106.281 92.2879 105.781 93.2874C105.657 93.5357 105.977 93.924 105.781 94.1203C105.585 94.3166 105.144 93.924 104.948 94.1203C104.752 94.3166 105.144 94.7569 104.948 94.9532C104.671 95.2309 102.727 95.5085 102.449 95.7861C102.253 95.9825 102.646 96.4227 102.449 96.6191C102.057 97.0117 101.28 96.3707 100.784 96.6191C95.5113 99.2552 87.7943 98.6856 81.6263 97.452Z" fill="#00FF00"/>
<path d="M149.093 149.093C149.136 158.16 147.842 164.915 151.592 172.415C151.964 173.16 151.328 174.123 151.592 174.914C151.867 175.739 153.559 179.114 154.091 179.911C154.526 180.565 155.405 180.875 155.756 181.577C156.253 182.569 156.67 184.989 157.422 185.742C157.815 186.134 158.695 185.349 159.088 185.742C159.284 185.938 158.892 186.378 159.088 186.575C159.615 187.101 162.259 187.904 163.253 187.407C164.86 186.604 163.541 185.998 164.086 184.909C164.932 183.216 166.027 181.585 166.584 179.911C167.18 178.124 167.004 162.437 166.584 159.921C166.296 158.189 165.207 156.656 164.919 154.923C164.782 154.102 165.121 153.233 164.919 152.425C164.746 151.734 160.08 143.422 159.921 143.263C159.536 142.878 157.925 143.514 157.422 143.263C157.071 143.087 156.962 142.554 156.589 142.43C156.044 142.248 150.353 142.002 149.926 142.43C149.533 142.822 150.319 143.703 149.926 144.095C149.73 144.292 149.289 143.899 149.093 144.095C148.7 144.488 149.486 145.369 149.093 145.761C148.897 145.958 148.26 145.484 148.26 145.761C148.26 146.906 148.815 147.982 149.093 149.093Z" fill="#00FF00"/>
<path d="M156.589 186.575C154.368 194.904 152.08 203.215 149.926 211.562C148.816 215.864 149.463 224.056 154.091 224.056C154.646 224.056 155.364 224.449 155.756 224.056C156.536 223.276 155.643 221.614 157.422 220.724C162.125 218.373 161.696 213.842 164.086 209.063C164.243 208.749 164.302 190.34 164.086 189.906C163.282 188.298 163.041 185.636 161.587 184.909C160.016 184.123 158.22 185.922 156.589 186.575Z" fill="#00FF00"/>
<path d="M156.589 213.228C156.589 219.891 156.589 226.555 156.589 233.218C156.589 236.047 155.716 240.594 156.589 243.213C156.897 244.136 158.255 248.255 158.255 249.044C158.255 249.451 159.599 254.364 160.754 253.208C161.678 252.284 161.538 249.974 162.42 248.211C162.753 247.544 162.087 246.378 162.42 245.712C163.112 244.327 164.386 243.146 164.919 241.547C166.802 235.897 167.215 229.909 165.751 224.056C165.482 222.979 166.103 221.778 165.751 220.724C165.464 219.862 164.499 219.052 164.086 218.226C163.961 217.977 164.282 217.589 164.086 217.393C163.387 216.694 161.484 217.046 160.754 216.56C159.275 215.574 157.978 214.339 156.589 213.228Z" fill="#00FF00"/>
<path d="M59.6103 113.857C60.3844 124.462 60.4106 135.104 60.3712 145.732C60.3235 153.683 60.0395 161.63 59.781 169.577C59.6715 172.24 59.663 174.904 59.6664 177.568C59.7127 180.748 59.7325 183.927 59.7216 187.107C59.6326 189.754 59.8026 192.415 59.569 195.055C59.1725 197.526 58.8809 200.011 58.7495 202.511C58.6478 205.691 58.1864 208.849 57.8909 212.017C57.6778 214.752 57.1228 217.442 56.803 220.168C56.6632 222.254 56.247 224.293 55.7688 226.325C55.123 228.399 54.2777 230.409 53.4893 232.434C52.7553 234.28 52.0527 236.12 51.4293 238.009C50.754 239.481 50.5355 241.098 49.9217 242.589C49.5552 243.945 48.9068 245.192 48.4377 246.511C47.8764 247.467 47.3248 248.429 46.8341 249.427C46.3608 250.391 45.8164 251.323 45.2012 252.207C44.6468 253.33 43.8019 254.274 43.2077 255.367C42.9158 256.207 42.363 256.904 41.9833 257.694C41.5726 258.5 41.4827 259.378 41.4235 260.264C41.4515 261.38 41.0371 262.44 40.7222 263.495C40.5515 264.221 40.4165 264.954 40.342 265.695C39.8978 266.338 39.6251 267.082 39.4428 267.836C38.9636 268.587 38.6646 269.413 38.4641 270.276C38.435 271.162 38.0153 271.868 37.6847 272.656C37.3532 273.343 37.284 274.097 37.1396 274.833C36.7646 275.442 36.4626 276.058 36.2467 276.743C34.6575 282.435 34.1805 276.838 49.3078 284.676C50.5899 282.83 51.4684 280.752 52.5163 278.771C53.6525 276.018 55.1999 273.532 56.9854 271.17C57.8619 270.011 58.6716 268.802 59.4366 267.563C62.1209 265.952 45.9128 254.689 46.7578 260.868C46.8207 261.929 46.7764 262.991 46.7731 264.053C46.7376 264.936 46.756 265.819 46.7484 266.703C46.7506 267.569 46.7562 268.435 46.736 269.301C46.7431 270.074 46.7318 270.847 46.7479 271.62C46.7173 272.298 46.8196 272.99 46.7009 273.661C62.1847 281.349 60.1117 283.837 59.9694 274.11C59.9713 270.558 59.4627 267.034 59.2074 263.496C59.0831 261.426 59.0332 259.354 58.9935 257.281C58.9222 255.294 59.0283 253.301 58.8987 251.317C58.1261 245.14 50.8235 241.555 44.5112 241.266C43.2807 241.121 42.3148 241.609 41.2027 242.037C40.2113 242.322 39.3211 242.884 38.5805 243.603C37.6346 244.231 36.6054 244.709 35.5969 245.243C34.6991 245.953 33.7277 246.472 32.9033 247.258C26.6601 250.676 42.3835 255.35 44.5163 256.688C46.069 256.74 46.1461 256.505 47.0763 255.159C48.5024 252.412 49.4279 249.436 50.6909 246.608C51.3869 245.006 51.9095 243.329 52.8497 241.848C53.501 240.423 54.0182 238.94 54.5728 237.475C55.1251 235.486 56.0093 233.63 56.8277 231.746C57.4198 230.162 58.1624 228.654 58.6018 227.013C59.0714 226 59.547 225.015 59.8411 223.931C60.0902 222.932 59.9603 221.889 60.2908 220.913C60.6457 219.926 60.9421 218.935 61.0709 217.894C61.0523 216.044 61.2852 214.227 61.5151 212.396C61.8441 209.04 62.4158 205.714 62.8109 202.366C63.1018 199.865 63.1914 197.348 63.233 194.833C63.2006 192.692 63.7041 190.595 63.9753 188.48C64.2441 186.531 64.1722 184.553 64.3991 182.603C64.7182 180.707 65.0626 178.818 65.2579 176.905C65.3844 175.318 65.3506 173.738 65.6377 172.169C65.9456 170.143 66.4083 168.146 66.7758 166.131C67.1877 163.874 67.4112 161.598 67.4629 159.306C67.4416 156.12 67.9419 152.961 68.1951 149.79C68.4837 147.068 68.3799 144.318 68.6515 141.597C68.9546 139.175 69.6158 136.824 70.0901 134.435C70.4386 132.154 71.0069 129.914 71.6782 127.709C72.621 125.407 73.2439 122.998 74.1206 120.672C74.8035 118.699 75.566 116.759 76.5466 114.913C77.1901 113.751 77.8692 112.597 78.4588 111.406C78.8953 110.391 79.5364 109.504 79.9658 108.487C80.1933 108.051 80.3648 107.268 80.381 106.973C80.7797 106.8 81.0743 106.071 81.2162 105.901C81.7513 105.249 82.1323 104.514 82.5423 103.784C82.8424 103.246 83.141 102.708 83.439 102.169C67.7572 93.1962 70.3175 91.5308 70.3543 99.7408C70.3718 101.815 70.3236 103.888 70.3168 105.962C70.2948 107.477 70.284 108.992 70.2944 110.507C70.3034 112.491 70.3351 114.475 70.3499 116.46C70.3752 119.076 70.3689 121.691 70.3558 124.307C70.3141 126.063 70.3209 127.819 70.2844 129.575C70.2756 130.77 70.2631 131.965 70.2805 133.16C70.2828 134.567 70.2901 135.975 70.293 137.382C70.3246 139.582 70.3544 141.781 70.3643 143.98C70.334 145.918 70.3342 147.856 70.2907 149.793C70.4255 151.465 70.2088 153.082 69.8995 154.718C69.6242 156.595 68.9295 158.36 68.5686 160.22C68.4148 161.944 67.9845 163.615 67.5889 165.294C67.1548 167.061 66.5223 168.769 65.8753 170.467C65.4816 171.937 64.871 173.335 64.4258 174.787C64.1367 176.884 63.8871 178.972 63.5087 181.057C63.1415 182.752 63.0548 184.48 62.6357 186.163C62.1605 188.094 61.9718 190.074 61.6218 192.03C61.2368 194.652 60.946 197.271 60.3732 199.862C60.0288 201.872 59.6824 203.871 59.2568 205.866C59.0037 207.791 58.3639 209.623 58.0246 211.528C57.5335 213.84 56.993 216.137 56.173 218.356L69.0935 225.54C69.9794 223.249 70.5112 220.869 71.1061 218.492C71.4552 216.599 72.139 214.796 72.3292 212.873C72.7477 210.865 73.2057 208.883 73.4188 206.839C73.8935 204.23 74.3037 201.624 74.6688 198.999C75.0759 197.088 75.3117 195.167 75.7254 193.26C76.1984 191.53 76.3305 189.788 76.5802 188.013C76.9407 185.988 77.3159 183.982 77.5235 181.936C77.9194 180.493 78.5763 179.145 78.8857 177.677C79.4982 175.896 80.2037 174.154 80.7121 172.338C81.0512 170.624 81.617 168.963 81.6887 167.206C82.0064 165.34 82.683 163.577 83.0053 161.715C83.3478 159.999 83.7452 158.333 83.5818 156.565C83.5388 154.603 83.5383 152.64 83.5082 150.677C83.5181 148.502 83.5478 146.327 83.5795 144.152C83.5824 142.749 83.5898 141.346 83.5921 139.942C83.6097 138.746 83.5967 137.55 83.5882 136.354C83.552 134.574 83.5581 132.793 83.5167 131.013C83.5038 128.399 83.4972 125.785 83.5225 123.171C83.5373 121.206 83.569 119.241 83.5779 117.275C83.5886 115.754 83.5776 114.233 83.5596 112.712C83.5582 110.63 83.5201 108.549 83.5493 106.467C83.6231 97.9331 84.9047 101.699 70.314 94.7353C70.108 95.2682 69.8545 95.7823 69.5759 96.2808C69.2039 96.8741 68.8922 97.5056 68.4081 98.0145C68.0293 98.4933 67.8064 99.0315 67.3514 99.4585C67.0284 100.036 67.0487 100.557 66.8688 101.19C66.518 102.196 65.8499 103.03 65.4653 104.021C64.8912 105.205 64.2139 106.337 63.6322 107.518C62.6225 109.42 61.947 111.474 61.2279 113.498C60.3182 115.845 59.681 118.285 58.6926 120.603C58.008 122.859 57.3754 125.143 57.0555 127.483C56.6192 129.917 55.8802 132.276 55.5551 134.729C55.1878 137.477 55.4628 140.272 55.1862 143.033C54.9426 146.212 54.4907 149.371 54.2975 152.549C54.2154 154.765 54.126 156.987 53.7369 159.175C53.3376 161.174 52.7948 163.131 52.5271 165.155C52.1674 166.777 52.0369 168.366 52.052 170.031C51.9165 171.92 51.6763 173.797 51.2576 175.647C50.8837 177.602 51.1358 179.617 50.8515 181.593C50.6041 183.765 50.0638 185.909 50.0442 188.096C50.0338 190.587 50.0065 193.081 49.8004 195.565C49.4982 198.905 48.9533 202.202 48.4609 205.515C48.1829 207.328 47.754 209.111 47.7909 210.955C47.7189 211.886 47.5313 212.789 47.1939 213.664C46.8048 214.712 46.6876 215.706 46.6499 216.821C46.4358 217.927 45.9267 218.897 45.4798 219.924C45.1275 221.517 44.4142 222.952 43.8728 224.481C43.0937 226.396 42.1704 228.256 41.5908 230.247C41.0489 231.63 40.5078 233.011 39.8854 234.359C39.0218 235.976 38.4792 237.689 37.8794 239.418C36.7768 242.151 35.8211 244.984 34.2886 247.512C34.1493 247.646 34.0442 247.83 33.8706 247.916C33.8146 247.943 33.794 247.806 33.7344 247.786C33.371 247.669 32.8979 247.837 32.5528 247.589C42.7117 254.167 41.6065 258.309 45.6512 255.144C46.4022 254.486 47.2967 253.973 48.1245 253.42C49.1939 252.815 50.3484 252.356 51.2847 251.538C52.0264 251.05 52.7461 250.644 53.6115 250.406C54.5515 250.083 55.4649 250.019 56.4144 250.395C61.0574 253.071 51.576 247.607 44.3302 243.288C44.2159 243.22 44.5861 243.363 44.7098 243.412C45.3231 243.655 45.3488 244.166 45.5555 244.754C46.0016 246.641 45.619 248.622 45.729 250.546C45.7484 252.685 45.881 254.818 46.0998 256.946C46.3933 260.441 46.8866 263.937 46.8865 267.444C46.7396 277.34 44.9815 272.547 60.155 280.516C60.0515 279.826 60.1273 279.123 60.108 278.427C60.1243 277.658 60.1125 276.89 60.1196 276.12C60.0996 275.251 60.1044 274.381 60.1081 273.512C60.1026 272.627 60.1245 271.743 60.1047 270.859C60.1185 269.781 60.1106 268.703 60.1476 267.626C60.3956 261.919 48.6895 254.259 46.4601 260.077C45.807 261.315 44.9881 262.452 44.2428 263.633C42.5166 266.099 41.0534 268.713 39.7682 271.438C38.664 273.336 37.8094 275.388 36.3976 277.093C39.8537 279.2 48.6026 289.781 49.4667 283.914C49.5981 283.254 49.9134 282.715 50.2482 282.133C50.571 281.431 50.5163 280.707 50.7735 279.976C51.1141 279.102 51.7005 278.325 51.6674 277.344C51.8204 276.447 52.1905 275.68 52.6848 274.917C52.7864 274.231 53.0317 273.616 53.4384 273.048C53.8034 272.281 53.7277 271.476 53.8868 270.642C54.164 269.469 54.6392 268.322 54.758 267.131C54.7702 266.439 54.7653 265.734 55.0362 265.084C55.3874 264.307 55.9825 263.653 56.1954 262.81C56.7473 261.756 57.5371 260.839 58.0895 259.782C58.7314 258.838 59.3792 257.888 59.8088 256.826C60.3596 255.781 60.9666 254.771 61.5165 253.725C61.9389 252.414 62.6131 251.205 62.9515 249.866C63.5523 248.331 63.8166 246.72 64.4237 245.184C65.0902 243.334 65.6923 241.465 66.4285 239.641C67.2292 237.562 68.1168 235.509 68.773 233.381C69.3826 231.304 69.8297 229.177 69.8746 227.006C70.1473 224.254 70.7475 221.548 70.9104 218.788C71.1462 215.608 71.6526 212.459 71.8551 209.28C71.9996 206.812 72.2088 204.348 72.6767 201.916C73.0261 199.216 72.7066 196.477 72.7797 193.761C72.7689 190.599 72.7881 187.439 72.8349 184.278C72.8384 181.575 72.828 178.872 72.7204 176.17C72.4638 168.023 72.1811 159.875 72.1301 151.723C72.0918 141.354 72.0932 130.968 72.8911 120.623L59.6103 113.857Z" fill="#000080"/>
<path d="M163.521 93.8274C166.071 96.176 168.603 98.5367 170.937 101.103C172.917 103.236 173.613 105.755 173.941 108.565C174.155 111.58 174.135 114.606 174.046 117.626C174.115 119.454 173.535 121.198 173.241 122.983C172.967 125.22 172.964 127.484 172.933 129.735C172.917 132.849 172.999 135.963 173.01 139.077C173.236 142.794 173.641 146.494 173.862 150.212C174.275 153.612 174.605 157.024 175.024 160.424C175.537 163.301 175.721 166.22 176.091 169.114C176.704 171.866 177.178 174.63 177.551 177.426C178.478 184.485 179.229 191.565 180.089 198.631C180.599 203.243 181.39 207.818 182.426 212.339C182.999 214.865 183.683 217.366 184.342 219.872C185.004 221.86 185.68 223.838 186.295 225.842C187.237 228.39 187.986 230.999 188.787 233.592C189.426 236.094 189.848 238.642 190.386 241.167C190.872 243.523 191.417 245.863 191.914 248.217C192.433 250.255 192.838 252.318 193.059 254.41C193.296 256.088 193.752 257.717 194.02 259.391C194.191 260.575 194.195 261.775 194.225 262.969C194.182 264.3 194.68 265.562 194.961 266.85C195.189 268 195.24 269.169 195.285 270.337C195.297 271.268 195.256 272.199 195.307 273.129C195.508 273.925 195.988 274.566 196.169 275.371C196.275 275.953 196.326 276.539 196.323 277.13C196.128 277.836 196.641 278.229 197.002 278.787C197.059 278.801 197.147 278.777 197.173 278.83C197.246 278.973 197.211 279.151 197.261 279.303C197.279 279.358 197.529 279.81 197.611 279.858C210.569 287.598 205.692 287.053 211.103 287.6C211.834 287.649 212.576 287.605 213.311 287.598C213.702 287.46 214.357 287.778 214.718 287.588C215.013 287.433 215.221 287.146 215.502 286.967C216.26 286.717 216.439 285.914 217.067 285.517C217.476 284.815 217.975 284.326 218.453 283.699C219.058 282.936 219.192 281.95 219.269 281.01C219.329 280.164 219.353 279.314 219.338 278.466C219.324 277.213 219.289 275.961 219.273 274.708C219.151 271.877 219.27 269.04 219.099 266.213C218.937 263.943 218.547 261.732 217.938 259.545C217.598 258.37 217.415 257.173 216.901 256.057C216.546 255.276 216.142 254.589 215.687 253.859C215.105 253.442 215.343 252.645 214.951 252.169C214.481 251.644 214.304 251.05 213.976 250.459C213.382 249.927 213.132 249.137 212.698 248.478C211.716 247.42 211.186 246.085 210.505 244.831C209.346 242.944 208.649 240.825 207.849 238.771C206.721 236.128 205.714 233.437 204.726 230.739C203.951 228.277 203.263 225.779 202.701 223.258C202.396 221.87 202.279 220.458 202.213 219.042C202.314 217.852 202.04 216.761 201.651 215.652C201.3 214.624 201.256 213.54 201.114 212.474C200.773 211.382 200.38 210.326 200.224 209.187C200.216 207.781 199.787 206.463 199.477 205.108C198.945 203.545 198.497 201.964 198.079 200.365C197.69 199.171 197.271 197.985 197.019 196.752C196.72 194.492 196.774 192.201 196.775 189.926C196.759 187.399 196.751 184.87 196.805 182.343C196.995 180.535 196.625 178.814 196.252 177.064C195.923 175.454 195.832 173.815 195.776 172.177C195.841 170.053 195.653 167.97 195.302 165.879C194.981 164.03 194.901 162.155 194.512 160.318C194.066 158.842 193.892 157.313 193.662 155.795C193.072 154.081 192.835 152.309 192.683 150.511C192.524 148.98 191.989 147.529 191.728 146.016C191.519 144.069 191.013 142.178 190.728 140.242C190.503 138.51 190.465 136.763 190.437 135.019C190.439 133.928 190.449 132.838 190.468 131.748C190.45 130.818 190.482 129.888 190.472 128.958C190.488 128.048 190.536 127.144 190.292 126.26C189.874 125.406 189.676 124.49 189.508 123.563C189.298 122.41 188.768 121.349 188.458 120.21C187.935 118.592 187.28 117.024 186.691 115.43C185.962 114.052 185.587 112.556 185.203 111.059C184.835 109.946 184.44 108.878 183.848 107.87C183.554 107.04 182.826 106.586 182.412 105.827C172.444 98.8356 173.788 98.1843 167.59 98.111C166.715 98.8839 166.527 99.8556 166.444 100.959C166.408 101.86 166.422 102.761 166.405 103.662C166.411 104.394 166.423 105.126 166.409 105.858C166.414 106.568 166.424 107.279 166.41 107.99C166.414 108.702 166.424 109.414 166.41 110.126C166.415 110.866 166.409 111.605 166.414 112.345C166.728 113.103 167.104 113.818 167.325 114.609C167.397 115.835 167.773 116.983 168.105 118.154C168.394 119.635 168.494 121.108 168.943 122.553C169.217 123.302 169.468 124.054 169.565 124.848C169.629 125.534 169.634 126.224 169.63 126.912C169.587 128.213 170.162 129.395 170.422 130.657C170.664 132.377 170.725 134.115 170.727 135.85C170.648 137.281 170.772 138.651 171.159 140.03C171.66 142.24 171.725 144.509 172.083 146.743C172.549 149.197 172.764 151.684 172.84 154.177C172.878 155.874 172.887 157.572 172.899 159.27C172.82 161.84 173.079 164.383 173.411 166.926C173.583 169.352 174.231 171.701 174.641 174.089C174.831 175.548 174.977 176.989 175.402 178.402C175.823 179.68 175.895 181.023 176.263 182.311C176.772 183.842 176.957 185.445 177.339 187.008C177.656 188.893 178.261 190.699 178.748 192.541C179.021 194.119 179.618 195.611 179.995 197.163C180.309 198.652 180.232 200.183 180.549 201.669C180.963 202.791 181.174 203.957 181.313 205.138C181.364 206.687 181.877 208.154 182.166 209.663C182.409 211.14 182.448 212.634 182.489 214.126C182.369 215.475 182.63 216.745 183.001 218.028C183.289 218.779 183.414 219.572 183.494 220.367C183.475 221.653 183.64 222.898 183.966 224.14C184.343 225.426 184.485 226.75 184.577 228.081C184.548 229.567 185.048 230.981 185.355 232.417C185.507 233.484 185.543 234.537 185.969 235.539C186.471 236.235 186.593 237.099 186.881 237.888C187.408 238.925 187.54 240.09 187.922 241.175C188.377 242.282 188.718 243.408 189.205 244.501C189.747 245.716 190.346 246.885 190.799 248.14C191.051 248.933 191.603 249.579 191.862 250.361C191.966 251.152 192.26 251.8 192.625 252.511C193.022 253.722 193.534 254.885 193.948 256.092C194.559 257.389 194.946 258.738 195.162 260.151C195.327 261.152 195.223 260.68 195.461 261.567L209.012 267.879C208.665 267.171 208.83 267.54 208.52 266.77C208.407 265.259 208.173 263.721 207.473 262.359C206.968 261.231 206.691 259.989 206.189 258.869C206.111 258.512 205.987 257.83 205.718 257.542C205.658 257.478 205.505 257.555 205.463 257.479C205.359 257.292 205.582 257.028 205.427 256.84C205.233 255.911 204.968 255.129 204.383 254.358C203.752 253.22 203.629 251.828 202.733 250.816C202.395 249.635 201.754 248.643 201.517 247.418C200.965 246.369 200.813 245.277 200.484 244.14C200.078 243.331 199.907 242.536 199.678 241.652C198.986 240.738 198.807 240.146 198.751 238.955C198.558 237.537 198.032 236.2 197.897 234.792C197.865 233.381 197.796 231.948 197.42 230.581C197.136 229.411 196.715 228.341 196.884 227.112C196.887 226.188 196.801 225.285 196.565 224.389C196.11 223.231 195.645 222.142 195.779 220.873C195.775 219.318 195.742 217.756 195.531 216.213C195.344 214.713 194.845 213.299 194.691 211.816C194.627 210.542 194.463 209.262 194.065 208.046C193.452 206.646 193.598 205.17 193.401 203.668C193.149 202.049 192.519 200.564 192.139 198.983C191.755 197.096 190.964 195.35 190.73 193.433C190.346 191.856 190.166 190.266 189.733 188.704C189.354 187.407 189.15 186.131 188.885 184.805C188.503 183.402 188.032 182.078 188.009 180.595C187.539 178.209 186.816 175.87 186.595 173.444C186.316 170.969 185.934 168.524 186.153 166.023C186.166 164.295 186.174 162.568 186.07 160.842C185.916 158.297 185.813 155.739 185.354 153.226C184.952 150.987 184.845 148.75 184.579 146.493C184.343 145.177 183.817 143.981 184.03 142.6C183.972 140.805 183.942 139.005 183.752 137.218C183.69 136.424 183.635 135.632 183.4 134.865C183.352 134.708 183.279 134.559 183.219 134.406C183.145 134.328 183.029 134.275 182.997 134.172C182.953 134.032 183.004 133.88 183.008 133.733C183.009 133.005 183.032 132.276 183 131.548C182.949 130.644 182.874 129.718 182.488 128.885C181.929 127.483 181.559 126.159 181.546 124.624C181.333 123.448 180.783 122.4 180.785 121.202C180.724 120.281 180.518 119.45 180.054 118.644C179.553 118.54 179.862 117.401 179.802 116.949C179.788 116.237 179.798 115.525 179.802 114.813C179.789 114.102 179.798 113.39 179.802 112.679C179.786 111.943 179.795 111.207 179.791 110.471C179.764 109.592 179.76 108.712 179.772 107.834C179.775 107.679 179.908 106.163 179.699 107.048C180.195 107.123 180.614 107.239 180.982 107.605C176.807 105.162 172.633 102.719 168.459 100.277C169.169 100.348 169.054 100.968 169.563 101.345C170.358 101.931 169.557 100.804 170.156 101.792C170.41 102.218 170.841 102.684 171.034 102.995C171.351 103.509 171.269 104.248 171.688 104.724C172.335 106.163 172.33 107.858 173.168 109.245C173.953 110.691 174.297 112.352 174.969 113.856C175.351 114.861 175.297 116.088 176.077 116.906C176.132 117.951 176.349 118.986 176.684 119.976C177.179 120.814 177.149 121.157 177.112 122.15C177.101 123.078 177.131 124.007 177.107 124.935C177.119 126.047 177.119 127.159 177.145 128.27C177.167 130.078 177.243 131.884 177.43 133.683C177.653 135.619 178.125 137.504 178.363 139.425C178.508 140.961 178.87 142.419 179.398 143.87C179.525 145.709 179.606 147.601 180.202 149.358C180.765 150.78 180.502 152.45 181.081 153.897C181.634 155.686 181.691 157.527 181.988 159.371C182.328 161.401 182.697 163.389 182.522 165.462C182.541 167.164 182.534 168.882 182.868 170.558C183.153 172.256 183.784 173.863 183.597 175.611C183.644 178.147 183.629 180.684 183.61 183.22C183.616 185.527 183.619 187.833 183.608 190.139C183.702 191.482 184.103 192.766 184.619 194.008C185.172 195.521 185.271 197.189 186.038 198.636C186.335 199.95 186.817 201.21 186.823 202.559C186.946 203.748 187.029 204.961 187.612 206.034C188.091 207.012 187.748 208.204 188.138 209.233C188.381 210.299 189.016 211.174 188.87 212.294C188.891 213.813 189.027 215.334 189.365 216.817C189.914 219.421 190.717 221.957 191.399 224.524C192.369 227.218 193.315 229.925 194.455 232.549C195.233 234.646 195.961 236.773 196.9 238.801C197.695 240 198.101 241.385 198.919 242.523C199.451 243.174 199.953 243.755 200.14 244.606C200.308 244.723 200.581 244.722 200.678 244.902C200.864 245.248 200.77 245.855 201.19 246.147C201.798 247.287 200.914 245.883 201.663 246.387C201.961 246.588 201.498 247.615 201.952 247.786C202.427 248.574 202.996 249.073 203.2 249.954C203.911 250.954 204.289 251.96 204.484 253.188C205.193 255.3 205.751 257.414 205.931 259.648C206.255 262.405 206.045 265.184 206.015 267.954C206.001 269.189 205.966 270.424 205.965 271.659C205.956 272.479 205.992 273.299 205.966 274.12C205.934 274.766 205.968 275.482 205.552 276.017C205.149 276.528 204.7 276.998 204.337 277.533C203.853 277.987 203.571 278.529 202.921 278.767C202.495 278.968 201.795 278.64 201.173 278.756C200.509 278.733 199.841 278.699 199.251 278.361C195.054 275.349 199.007 278.196 211.518 285.583C211.677 285.676 211.221 285.353 211.047 285.293C210.961 285.263 210.819 285.34 210.778 285.26C210.711 285.132 210.795 284.972 210.804 284.827C210.7 284.674 210.182 283.704 210.072 283.7C209.934 283.695 209.852 283.865 209.742 283.948C209.725 283.281 209.752 282.612 209.643 281.952C209.534 281.082 209.494 280.205 208.871 279.53C208.304 279.027 208.785 277.8 208.625 277.099C208.62 275.857 208.572 274.608 208.372 273.38C208.185 272.143 207.798 270.939 207.567 269.751C207.573 268.49 207.497 267.234 207.395 265.978C207.2 264.297 206.806 262.663 206.354 261.036C206.194 258.858 205.78 256.725 205.215 254.616C204.625 252.302 204.309 249.916 203.699 247.607C203.166 245.034 202.585 242.479 202.083 239.9C201.369 237.282 200.506 234.706 199.714 232.11C198.923 230.187 198.582 228.104 197.761 226.183C196.806 223.782 196.428 221.13 195.623 218.672C194.46 214.133 193.387 209.557 192.805 204.903C191.819 197.904 191.024 190.874 190.422 183.832C190.268 181.042 190.291 178.26 189.386 175.595C188.72 172.752 188.801 169.751 188.162 166.891C187.64 163.536 187.53 160.123 186.922 156.775C186.727 153.075 186.342 149.393 186.016 145.703C186.022 142.623 186.088 139.544 186.105 136.464C186.12 134.288 186.126 132.106 186.39 129.943C186.668 128.076 187.289 126.245 187.207 124.344C187.163 121.267 187.214 118.188 187.076 115.113C186.893 112.06 186.463 109.223 184.423 106.791C182.222 104.205 179.738 101.891 177.302 99.5353L163.521 93.8274Z" fill="#000080"/>
<path d="M177.381 97.239C183.202 100.877 186.214 101.868 190.204 106.856C191.228 108.137 190.263 121.995 191.272 125.022C191.591 125.977 192.959 126.258 193.409 127.159C194.366 129.073 193.791 131.508 194.478 133.57C195.003 135.147 196.167 136.5 196.615 137.844C197.149 139.447 196.081 141.584 196.615 143.187C196.774 143.665 197.458 143.805 197.684 144.256C198.703 146.294 197.684 151.543 197.684 153.873C197.684 157.924 196.153 163.346 194.478 166.695C194.155 167.341 194.972 169.407 194.478 169.901C194.226 170.153 193.661 169.649 193.409 169.901C193.158 170.153 193.409 171.326 193.409 170.97C193.409 161.709 193.409 152.448 193.409 143.187C193.409 140.634 194.272 135.088 193.409 132.501C193.25 132.024 192.5 131.911 192.341 131.433C191.778 129.743 192.773 127.818 192.341 126.09C191.89 124.286 188.565 121.175 188.067 119.679C187.841 119.003 188.292 118.217 188.067 117.542C187.398 115.537 184.958 113.947 183.792 112.199C183.168 111.262 183.52 109.79 182.724 108.993C182.472 108.741 181.907 109.245 181.655 108.993C180.571 107.909 182.527 103.889 181.655 102.582C180.39 100.684 178.806 99.0199 177.381 97.239Z" fill="#000080"/>
<path d="M186.998 119.679C186.998 124.309 186.998 128.94 186.998 133.57C186.998 134.43 186.207 142.396 186.998 143.187C187.281 143.47 189.764 143.187 190.204 143.187C190.644 143.187 193.127 143.47 193.409 143.187C193.743 142.854 195.68 123.018 195.547 122.884C195.295 122.633 194.73 123.136 194.478 122.884C194.226 122.633 194.73 122.068 194.478 121.816C193.285 120.623 189.581 120.195 186.998 119.679Z" fill="#000080"/>
<path d="M189.135 137.844C189.135 141.406 189.135 144.968 189.135 148.53C189.135 153.597 188.097 153.873 192.341 153.873C193.053 153.873 193.974 154.376 194.478 153.873C195.452 152.899 194.478 145.786 194.478 144.256C194.478 143.543 194.982 142.622 194.478 142.118C192.865 140.506 190.916 139.269 189.135 137.844Z" fill="#000080"/>
<path d="M172.038 97.239C173.107 101.157 174.077 105.103 175.244 108.993C176.862 114.387 178.662 119.729 180.587 125.022C180.816 125.653 185.166 136.012 185.929 136.776C186.096 136.942 190.037 136.942 190.204 136.776C191.676 135.304 191.341 130.226 192.341 128.227C192.566 127.777 193.184 127.609 193.409 127.159C194.121 125.735 194.121 116.828 193.409 115.405C192.478 113.541 187.793 108.856 185.929 107.925C185.611 107.765 185.113 108.176 184.861 107.925C184.357 107.421 185.365 106.291 184.861 105.787C184.609 105.536 184.044 106.039 183.792 105.787C183.541 105.536 183.952 105.038 183.792 104.719C183.276 103.686 180.551 100.961 179.518 100.445C178.881 100.126 177.885 100.948 177.381 100.445C177.129 100.193 177.381 99.7323 177.381 99.3761C175.6 98.6638 173.819 97.9514 172.038 97.239Z" fill="#000080"/>
<path d="M209.438 251.112C212.342 256.246 214.054 259.66 219.055 259.66C219.767 259.66 220.688 260.164 221.192 259.66C221.444 259.408 220.94 258.843 221.192 258.592C223.092 256.692 221.429 263.697 223.329 261.797C223.833 261.293 223.329 260.372 223.329 259.66C223.329 259.22 223.612 256.737 223.329 256.454C222.795 255.92 221.726 255.92 221.192 255.386C220.94 255.134 221.444 254.569 221.192 254.317C220.657 253.782 217.618 253.949 216.918 253.249C216.473 252.804 216.162 251.342 214.781 251.112C213.024 250.819 211.219 251.112 209.438 251.112Z" fill="#000080"/>
<path d="M35.2625 250.043C27.731 254.633 29.4965 256.232 26.714 261.797C26.3914 262.442 27.208 264.509 26.714 265.003C26.4621 265.255 25.6454 264.647 25.6454 265.003C25.6454 266.01 26.8815 263.316 27.7826 262.866C30.9271 261.293 26.3757 265.341 29.9197 261.797C32.1548 259.562 38.4682 257.999 38.4682 256.454C38.4682 248.413 26.714 247.609 26.714 247.906C26.714 248.262 27.4264 247.906 27.7826 247.906" fill="#FF0000"/>
<path d="M84.4163 255.386C84.4163 258.235 84.4163 261.085 84.4163 263.934C84.4163 273.551 84.4163 283.168 84.4163 292.785C84.4163 295.893 83.0566 302.889 84.4163 305.608C84.6415 306.059 85.2595 306.226 85.4848 306.677C86.0454 307.798 84.6319 311.167 85.4848 312.019C85.7367 312.271 86.3015 311.768 86.5534 312.019C87.6219 313.088 85.4848 317.362 86.5534 318.431C86.8052 318.683 87.3701 318.179 87.6219 318.431C88.1159 318.925 87.2994 320.991 87.6219 321.637C87.8472 322.087 88.4652 322.255 88.6905 322.705C89.5453 324.415 87.8357 327.407 88.6905 329.116C89.7554 331.246 89.7627 333.398 90.8276 335.528C91.1462 336.165 90.509 337.028 90.8276 337.665C91.7975 339.605 93.3579 342.05 94.0333 344.076C94.1963 344.565 95.0485 351.503 95.1019 351.556C95.3537 351.808 95.9186 351.304 96.1704 351.556C96.285 351.671 96.1704 362.175 96.1704 363.31C96.1704 380.051 96.1704 396.792 96.1704 413.533C96.1704 415.337 96.6604 421.993 97.239 423.15C97.8614 424.394 98.7537 425.111 99.3761 426.355C99.7736 427.15 101.471 434.861 101.513 434.904C101.765 435.156 102.33 434.652 102.582 434.904C103.076 435.398 102.259 437.464 102.582 438.11C103.451 439.849 107.801 453.193 105.787 455.207C105.536 455.458 104.971 454.955 104.719 455.207C104.467 455.458 104.971 456.023 104.719 456.275C104.467 456.527 103.902 456.023 103.65 456.275C103.592 456.333 101.571 459.423 101.513 459.481C101.261 459.733 100.697 459.229 100.445 459.481C100.193 459.733 100.604 460.231 100.445 460.549C99.9941 461.45 98.7581 461.785 98.3075 462.686C97.9775 463.347 97.6351 466.565 97.239 466.961C96.9871 467.213 96.4223 466.709 96.1704 466.961C95.6667 467.464 96.6741 468.594 96.1704 469.098C96.0636 469.205 93.784 469.917 95.1019 471.235C95.458 471.591 97.9514 471.947 98.3075 472.303C98.7353 472.731 98.8862 473.661 100.445 474.441C101.082 474.759 102.078 473.937 102.582 474.441C102.64 474.499 104.661 477.588 104.719 477.646C106.144 479.071 111.843 476.222 113.267 477.646C113.519 477.898 113.016 478.463 113.267 478.715C113.577 479.024 120.438 479.024 120.747 478.715C120.747 475.865 120.391 479.071 121.816 477.646C122.463 476.999 121.816 472.013 121.816 471.235C121.816 465.27 123.045 440.727 121.816 437.041C121.657 436.563 120.973 436.423 120.747 435.972C119.501 433.48 120.747 427.067 120.747 424.218C120.747 420.926 119.841 406.798 120.747 404.984C121.863 402.753 122.837 402.941 123.953 400.71C124.398 399.82 123.275 397.114 123.953 396.436C124.205 396.184 124.77 396.688 125.022 396.436C125.624 395.833 124.737 393.015 125.022 392.161C125.273 391.406 125.838 390.78 126.09 390.024C126.513 388.757 126.545 371.7 126.09 370.79C125.319 369.248 124.724 368.059 123.953 366.516C123.526 365.661 124.38 364.165 123.953 363.31C122.847 361.098 121.841 359.085 120.747 356.899C120.394 356.192 120.394 329.824 120.747 329.116C121.474 327.662 122.263 325.463 122.884 324.842C123.136 324.59 123.701 325.094 123.953 324.842C124.205 324.59 123.701 324.025 123.953 323.774C124.205 323.522 124.77 324.025 125.022 323.774C125.369 323.426 125.022 306.027 125.022 303.471C125.022 300.039 126.093 273.557 125.022 271.414C124.796 270.964 124.178 270.796 123.953 270.346C122.826 268.092 125.666 261.373 123.953 259.66C123.701 259.408 123.136 259.912 122.884 259.66C122.35 259.126 122.35 258.057 121.816 257.523C120.423 256.13 106.292 258.844 103.65 257.523C100.774 256.085 98.6301 257.15 97.239 256.454C93.6745 254.672 88.628 255.386 84.4163 255.386Z" fill="#FF0000"/>
<path d="M125.022 257.523C125.022 261.441 125.022 265.359 125.022 269.277C125.022 280.319 125.022 291.361 125.022 302.403C125.022 305.129 124.102 315.523 125.022 317.362C126.008 319.335 126.388 321.462 127.159 323.774C127.586 325.056 126.731 326.766 127.159 328.048C127.318 328.526 128.002 328.666 128.227 329.117C128.655 329.971 127.8 331.467 128.227 332.322C128.387 332.641 129.044 332.07 129.296 332.322C129.8 332.826 128.977 333.822 129.296 334.459C129.521 334.91 130.139 335.077 130.364 335.528C130.809 336.418 129.687 339.124 130.364 339.802C130.616 340.054 131.181 339.55 131.433 339.802C132.631 341 130.645 345.706 131.433 347.282C133.213 350.842 133.213 357.614 131.433 361.173C131.11 361.819 131.927 363.885 131.433 364.379C131.181 364.631 130.616 364.127 130.364 364.379C129.83 364.913 130.899 367.051 130.364 367.585C130.112 367.837 129.548 367.333 129.296 367.585C128.582 368.299 130.01 369.008 129.296 369.722C129.044 369.974 128.479 369.47 128.227 369.722C127.724 370.226 128.546 371.222 128.227 371.859C128.002 372.31 127.384 372.477 127.159 372.928C125.912 375.42 127.159 381.833 127.159 384.682C127.159 385.394 126.655 386.315 127.159 386.819C127.411 387.071 127.975 386.567 128.227 386.819C128.983 387.574 128.227 393.112 128.227 394.299C128.227 396.757 127.226 408.325 128.227 410.327C129.006 411.886 129.937 412.037 130.364 412.464C130.899 412.999 129.83 415.136 130.364 415.67C130.616 415.922 131.181 415.418 131.433 415.67C132.683 416.92 132.501 420.163 132.501 422.081C132.501 424.633 132.75 445.341 132.501 445.59C132.25 445.842 131.685 445.338 131.433 445.59C130.719 446.303 132.147 447.013 131.433 447.727C131.181 447.979 130.616 447.475 130.364 447.727C129.861 448.231 130.868 449.36 130.364 449.864C130.112 450.116 129.548 449.612 129.296 449.864C128.762 450.398 129.83 452.535 129.296 453.07C129.044 453.321 128.479 452.818 128.227 453.07C127.733 453.564 128.55 455.63 128.227 456.275C128.002 456.726 127.384 456.893 127.159 457.344C126.484 458.693 128.184 462.729 127.159 463.755C126.655 464.259 125.34 463.118 125.022 463.755C124.815 464.169 126.086 472.3 126.09 472.304C126.342 472.556 126.907 472.052 127.159 472.304C127.693 472.838 126.624 474.975 127.159 475.509C127.693 476.044 128.762 476.044 129.296 476.578C129.83 477.112 129.83 478.181 130.364 478.715C131.12 479.471 132.614 478.237 133.57 478.715C133.889 478.874 133.318 479.532 133.57 479.784C133.685 479.898 144.189 479.784 145.324 479.784C146.037 479.784 146.958 480.287 147.461 479.784C147.713 479.532 147.209 478.967 147.461 478.715C147.965 478.211 148.961 479.034 149.598 478.715C151.157 477.936 151.308 477.006 151.736 476.578C152.092 476.222 154.585 475.866 154.941 475.509C155.322 475.129 155.972 472.341 156.01 472.304C156.167 472.147 159.215 472.429 159.215 472.304C159.215 471.296 157.791 470.879 157.078 470.167C155.927 469.016 155.521 467.541 154.941 466.961C154.689 466.709 154.125 467.213 153.873 466.961C152.875 465.963 152.734 462.616 151.736 461.618C151.484 461.366 150.919 461.87 150.667 461.618C150.163 461.114 151.171 459.985 150.667 459.481C150.133 458.947 149.064 458.947 148.53 458.412C148.026 457.909 149.034 456.779 148.53 456.275C148.278 456.023 147.713 456.527 147.461 456.275C145.781 454.595 144.154 443.757 145.324 440.247C145.89 438.548 147.734 436.496 148.53 434.904C149.09 433.783 147.677 430.414 148.53 429.561C148.782 429.309 149.347 429.813 149.598 429.561C150.489 428.671 148.708 425.109 149.598 424.219C149.85 423.967 150.415 424.47 150.667 424.219C152.496 422.39 151.666 414.741 152.804 412.464C153.029 412.014 153.647 411.846 153.873 411.396C155.142 408.857 152.971 404.485 153.873 401.779C154.032 401.301 154.782 401.188 154.941 400.71C156.013 397.494 154.116 393.325 154.941 390.025C155.134 389.252 155.758 388.643 156.01 387.887C156.371 386.805 155.247 383.307 156.01 382.545C156.262 382.293 156.826 382.797 157.078 382.545C157.756 381.867 156.634 379.16 157.078 378.27C157.304 377.82 157.922 377.652 158.147 377.202C159.525 374.446 157.764 369.257 157.078 366.516C156.625 364.703 157.904 361.756 157.078 360.105C156.853 359.654 156.169 359.514 156.01 359.036C155.536 357.616 156.688 355.05 156.01 353.694C155.161 351.996 153.839 347.349 154.941 345.145C157.93 339.167 159.424 333.624 161.353 325.911C161.857 323.894 160.414 320.308 161.353 318.431C161.578 317.98 162.196 317.813 162.421 317.362C162.965 316.275 161.574 312.867 162.421 312.02C162.673 311.768 163.238 312.272 163.49 312.02C163.708 311.801 163.49 298.508 163.49 297.06C163.49 295.066 163.718 295.535 164.558 293.854C165.237 292.497 164.085 289.932 164.558 288.511C164.718 288.033 165.402 287.893 165.627 287.443C167.052 284.593 164.202 279.607 165.627 276.757C167.543 272.924 166.695 267.411 166.695 262.866C166.695 261.679 167.451 256.142 166.695 255.386C166.192 254.882 165.271 255.386 164.558 255.386C159.819 255.386 156.674 255.588 152.804 257.523C152.167 257.842 151.171 257.019 150.667 257.523C150.415 257.775 150.919 258.34 150.667 258.592C149.855 259.404 146.445 259.1 145.324 259.66C144.874 259.885 144.734 260.569 144.256 260.729C143.478 260.988 130.976 261.035 130.364 260.729C128.507 259.8 126.802 258.592 125.022 257.523Z" fill="#FF0000"/>
<path d="M96.9965 37.3062C98.9507 35.0324 94.8772 26.6348 96.9965 24.5155C97.6944 23.8176 99.4597 23.8526 100.194 22.3837C100.517 21.7377 100.813 19.6327 101.26 19.186C101.511 18.9348 102.075 19.4372 102.326 19.186C102.577 18.9348 102.075 18.3713 102.326 18.1201C102.577 17.8689 103.141 18.3713 103.392 18.1201C103.643 17.8689 103.233 17.372 103.392 17.0542C103.841 16.1554 105.074 15.8213 105.524 14.9224C105.683 14.6046 105.272 14.1078 105.524 13.8565C107.729 11.6512 105.437 17.2266 107.655 12.7906C107.814 12.4728 107.404 11.976 107.655 11.7247C107.907 11.4735 108.47 11.976 108.721 11.7247C109.077 11.3694 109.432 8.88235 109.787 8.52705C110.038 8.27582 110.535 8.68595 110.853 8.52705C113.21 7.34867 111.184 7.86551 111.919 6.39526C114.137 1.95926 111.845 7.53474 114.051 5.32936C114.302 5.07813 113.8 4.5147 114.051 4.26347C114.761 3.55287 117.604 4.97407 118.314 4.26347C118.566 4.01223 118.063 3.44881 118.314 3.19757C118.951 2.56057 133.811 3.77165 134.303 4.26347C134.361 4.32123 136.377 7.4034 136.435 7.46116C136.937 7.96362 138.064 6.95869 138.566 7.46116C138.818 7.71239 138.315 8.27582 138.566 8.52705C140.772 10.7324 138.48 5.15694 140.698 9.59295C140.857 9.91074 140.447 10.4076 140.698 10.6588C141.201 11.1613 142.328 10.1564 142.83 10.6588C143.081 10.9101 142.579 11.4735 142.83 11.7247C143.081 11.976 143.645 11.4735 143.896 11.7247C144.307 12.1362 145.751 15.4766 144.962 17.0542C143.587 19.8032 138.441 18.1826 136.435 19.186C134.49 20.1581 132.315 21.8149 130.039 22.3837C129.35 22.556 128.582 22.159 127.907 22.3837C126.954 22.7015 126.729 24.1977 125.776 24.5155C123.744 25.1926 121.892 25.3916 119.38 26.6473C118.481 27.0967 118.147 28.3297 117.249 28.7791C116.613 29.0969 115.752 28.4613 115.117 28.7791C109.225 31.7249 103.735 34.611 96.9965 37.3062Z" fill="#FF00FF"/>
<path d="M148.16 44.7676C147.51 45.1602 146.444 51.8128 146.028 52.2289C145.601 52.6555 144.673 52.8061 143.896 54.3606C142.717 56.7184 141.764 61.1208 141.764 63.9537C141.764 65.1228 138.433 72.3472 138.566 72.4809C138.818 72.7321 139.381 72.2296 139.632 72.4809C140.135 72.9833 139.13 74.1102 139.632 74.6127C140.114 75.0947 143.31 71.5218 143.896 70.3491C144.214 69.7135 143.393 68.7198 143.896 68.2173C144.147 67.9661 144.711 68.4685 144.962 68.2173C145.02 68.1595 147.036 65.0774 147.094 65.0196C147.345 64.7684 147.908 65.2708 148.16 65.0196C148.662 64.5171 147.657 63.3903 148.16 62.8878C148.411 62.6366 148.974 63.139 149.225 62.8878C149.477 62.6366 149.067 62.1397 149.225 61.8219C151.443 57.3859 149.152 62.9614 151.357 60.756C151.89 60.2231 151.89 59.1572 152.423 58.6242C152.956 58.0913 154.022 58.0913 154.555 57.5583C155.057 57.0559 154.052 55.929 154.555 55.4265C154.806 55.1753 155.37 55.6778 155.621 55.4265C156.264 54.7829 155.621 50.042 155.621 49.0312C155.621 48.5923 155.903 46.1156 155.621 45.8335C155.118 45.331 154.19 45.9503 153.489 45.8335C151.702 45.5356 149.936 45.1229 148.16 44.7676Z" fill="#FF00FF"/>
<path d="M127.908 6.39542C127.996 7.40421 135.918 17.862 136.435 18.1203C137.774 18.7901 139.836 19.5936 140.698 21.318C140.857 21.6358 140.447 22.1326 140.698 22.3839C140.949 22.6351 141.513 22.1326 141.764 22.3839C142.015 22.6351 141.513 23.1985 141.764 23.4498C142.015 23.701 142.579 23.1985 142.83 23.4498C143.081 23.701 142.579 24.2644 142.83 24.5157C143.081 24.7669 143.645 24.2644 143.896 24.5157C144.291 24.9107 144.633 28.1207 144.962 28.7792C145.317 29.4898 145.466 30.3493 146.028 30.911C146.556 31.4392 151.426 32.9738 152.423 31.9769C153.067 31.3332 152.423 26.5924 152.423 25.5815C152.423 24.0379 153.099 20.5371 152.423 19.1862C151.646 17.6316 150.718 17.481 150.291 17.0544C150.04 16.8031 150.543 16.2397 150.291 15.9885C150.04 15.7373 149.477 16.2397 149.225 15.9885C148.974 15.7373 149.477 15.1738 149.225 14.9226C148.974 14.6714 148.411 15.1738 148.16 14.9226C147.908 14.6714 148.411 14.1079 148.16 13.8567C147.908 13.6055 147.345 14.1079 147.094 13.8567C146.842 13.6055 147.345 13.042 147.094 12.7908C146.842 12.5396 146.279 13.042 146.028 12.7908C145.776 12.5396 146.279 11.9761 146.028 11.7249C145.776 11.4737 145.213 11.9761 144.962 11.7249C144.711 11.4737 145.213 10.9102 144.962 10.659C144.607 10.3037 142.119 9.94841 141.764 9.59311C141.231 9.06016 141.231 7.99427 140.698 7.46132C140.196 6.95885 139.202 7.77911 138.566 7.46132C137.028 6.69185 135.842 6.09899 134.303 5.32953C132.37 4.36301 130.027 5.97158 127.908 6.39542Z" fill="#FF00FF"/>
<path d="M34.3975 244.714C20.0458 244.788 34.8871 251.597 33.4147 254.542C31.3697 258.632 33.4826 253.491 31.4492 255.525C30.9578 256.016 30.9578 256.999 30.4664 257.49C30.2347 257.722 29.7152 257.259 29.4836 257.49C29.0474 257.926 26.7909 262.148 26.5352 262.404C26.3036 262.636 25.7841 262.172 25.5524 262.404C25.5337 262.423 24.3513 265.352 24.5697 265.352C26.3222 265.352 28.5417 261.38 29.4836 260.439C30.6806 259.241 31.6793 259.978 32.432 258.473C32.5785 258.18 32.2003 257.722 32.432 257.49C32.7595 257.163 35.0527 256.835 35.3803 256.507C35.612 256.276 35.1487 255.756 35.3803 255.525C36.6572 254.248 36.3631 260.983 36.3631 261.421C36.3631 262.602 36.8798 265.302 36.3631 266.335C35.8513 267.359 32.399 273.182 33.4147 274.198C34.1682 274.951 36.5769 271.035 37.3459 270.266C38.5977 269.015 38.6453 267.668 39.3115 266.335C39.7258 265.506 40.8627 265.198 41.277 264.37C41.8012 263.321 40.7529 261.487 41.277 260.439C41.4842 260.024 42.1475 259.905 42.2598 259.456C42.4107 258.852 44.0115 248.431 43.2426 247.662C42.6192 247.039 40.1297 248.071 39.3115 247.662C37.6029 246.808 36.1533 243.961 34.3975 244.714C32.4932 245.53 33.3585 248.758 32.432 250.611C32.3361 250.802 30.6796 251.38 30.4664 251.593C29.975 252.085 30.9578 254.05 30.4664 254.542C30.2347 254.773 29.7152 254.31 29.4836 254.542C29.2519 254.773 29.7152 255.293 29.4836 255.525C29.4303 255.578 26.5885 257.437 26.5352 257.49C26.0719 257.953 26.9985 258.992 26.5352 259.456C25.7924 260.199 24.5697 259.882 24.5697 261.421" fill="#000080"/>
<path d="M32.432 247.662C24.5771 248.867 29.9646 247.683 28.5008 250.61C27.9284 251.755 27.1077 252.414 26.5352 253.559C26.2422 254.145 26.9985 255.061 26.5352 255.524C26.3036 255.756 25.7841 255.293 25.5525 255.524C25.3208 255.756 25.699 256.214 25.5525 256.507C24.8943 257.824 23.2079 257.869 22.6041 258.473C22.3725 258.704 22.8357 259.224 22.6041 259.456C22.3725 259.687 21.853 259.224 21.6213 259.456C21.3897 259.687 21.6213 260.111 21.6213 260.438C21.6213 261.094 21.158 261.941 21.6213 262.404C23.4788 264.261 31.9083 264.216 34.3975 263.387C35.983 262.858 35.9579 252.748 35.3803 251.593C34.6478 250.128 33.4147 248.972 32.432 247.662Z" fill="#000080"/>
</g>
<defs>
<clipPath id="clip0_514_310">
<rect width="231" height="484" fill="white"/>
</clipPath>
</defs>
</svg>
