<svg width="42" height="42" viewBox="0 0 42 42" fill="none" xmlns="http://www.w3.org/2000/svg">
<g clip-path="url(#clip0_92_84)">
<rect width="40.6639" height="40.6639" transform="translate(41.0643 40.6619) rotate(179.433)" fill="white"/>
<path d="M1.72719 24.2596L8.34948 30.8192C8.50855 30.9764 8.69718 31.1006 8.9045 31.1846C9.11181 31.2685 9.33369 31.3106 9.55735 31.3084C9.78101 31.3062 10.002 31.2597 10.2076 31.1717C10.4132 31.0836 10.5994 30.9557 10.7553 30.7954C11.0677 30.4748 11.2406 30.0436 11.2362 29.596C11.2317 29.1484 11.0504 28.7208 10.7317 28.4065L4.63996 22.3838L39.1856 22.0419C39.635 22.0375 40.0641 21.8547 40.3787 21.5339C40.6933 21.213 40.8675 20.7803 40.8631 20.3309V20.3309C40.8587 19.8816 40.6759 19.4524 40.355 19.1378C40.0341 18.8232 39.6014 18.649 39.1521 18.6535L4.50477 18.9963L10.5774 12.8194C10.7346 12.6603 10.8588 12.4717 10.9428 12.2644C11.0268 12.0571 11.0689 11.8352 11.0667 11.6115C11.0644 11.3879 11.018 11.1669 10.9299 10.9613C10.8419 10.7557 10.714 10.5695 10.5536 10.4136C10.3945 10.2563 10.2059 10.1322 9.99858 10.0482C9.79127 9.96421 9.56939 9.92212 9.34573 9.92433C9.12206 9.92655 8.90106 9.97302 8.69545 10.0611C8.48984 10.1491 8.3037 10.277 8.14777 10.4374L1.6561 17.076C0.7137 18.0384 0.19185 19.3355 0.20518 20.6825C0.21851 22.0294 0.765928 23.316 1.72719 24.2596Z" fill="black"/>
</g>
<defs>
<clipPath id="clip0_92_84">
<rect width="40.6639" height="40.6639" fill="white" transform="translate(41.0643 40.6619) rotate(179.433)"/>
</clipPath>
</defs>
</svg>
